#!OML:ASF F:\VICON\USERDATA\INSTALL\rory3\rory3.ASF
:FULLY-SPECIFIED
:DEGREES
1415
root -5.52935 18.3954 4.33341 -5.82469 50.2504 -0.124194
lowerback 3.27566 0.0986332 -1.81979
upperback 0.392661 0.0771706 0.56103
thorax -1.43649 0.0509933 1.59255
lowerneck -0.791732 2.04156 -6.02981
upperneck 13.6259 2.02399 10.1507
head 3.97876 1.28153 4.20552
rclavicle 1.31356e-013 -9.34288e-015
rhumerus -11.6013 -26.87 -31.9357
rradius 74.0508
rwrist 16.9875
rhand -30.7366 -0.426156
rfingers 7.12502
rthumb -4.02883 -30.3678
lclavicle 1.31356e-013 -9.34288e-015
lhumerus -14.096 29.0556 47.0294
lradius 82.2396
lwrist 2.95002
lhand -20.8305 29.3735
lfingers 7.12502
lthumb 5.53798 59.2811
rfemur 4.39412 11.3562 13.0971
rtibia 26.7995
rfoot -24.2808 -36.9461
rtoes -0.236088
lfemur -1.77235 -4.28145 -9.43288
ltibia 24.8277
lfoot -15.2102 17.1972
ltoes -8.60146
1416
root -5.4485 18.4056 4.2587 -5.56406 50.3744 0.194766
lowerback 3.26716 0.194264 -1.83529
upperback 0.407996 0.201781 0.391955
thorax -1.42057 0.112657 1.42214
lowerneck -1.01816 1.9688 -6.10165
upperneck 13.565 1.91831 10.3437
head 4.00313 1.23974 4.27711
rclavicle -1.67709e-014 -1.05604e-015
rhumerus -12.9949 -26.654 -31.8653
rradius 75.2001
rwrist 16.5894
rhand -31.1541 0.076816
rfingers 7.12502
rthumb -4.43191 -29.8568
lclavicle -1.67709e-014 -1.05604e-015
lhumerus -14.3533 29.2778 47.3172
lradius 82.3593
lwrist 3.73704
lhand -21.3796 29.119
lfingers 7.12502
lthumb 5.00784 59.0398
rfemur 4.04503 10.8696 12.324
rtibia 27.316
rfoot -23.3023 -36.7334
rtoes -0.189317
lfemur -1.82758 -4.01485 -9.97625
ltibia 24.9089
lfoot -15.0372 16.8355
ltoes -9.49305
1417
root -5.36557 18.4207 4.18107 -5.31491 50.4555 0.447027
lowerback 3.24451 0.297988 -1.72045
upperback 0.407216 0.342063 0.225907
thorax -1.41236 0.181666 1.18116
lowerneck -1.1933 1.86534 -6.14436
upperneck 13.467 1.77646 10.4748
head 4.01266 1.17666 4.32168
rclavicle 1.78495e-014 1.50331e-015
rhumerus -14.4963 -26.3827 -31.8704
rradius 76.3451
rwrist 16.2557
rhand -31.3594 0.337275
rfingers 7.12502
rthumb -4.63021 -29.5921
lclavicle 1.78495e-014 1.50331e-015
lhumerus -14.6727 29.2344 47.63
lradius 82.4275
lwrist 4.73815
lhand -22.2731 28.8458
lfingers 7.12502
lthumb 4.14509 58.7852
rfemur 3.62074 10.1572 11.5065
rtibia 27.8099
rfoot -22.14 -36.3005
rtoes 0.0368464
lfemur -1.89496 -3.87121 -10.5279
ltibia 25.0124
lfoot -15.0292 16.7026
ltoes -9.44641
1418
root -5.28567 18.44 4.10103 -5.00097 50.5042 0.722143
lowerback 3.23321 0.401626 -1.62891
upperback 0.375815 0.481128 0.0775834
thorax -1.44084 0.250701 0.971457
lowerneck -0.856797 1.81814 -5.73287
upperneck 12.8676 1.75063 10.1077
head 3.78942 1.14657 4.11889
rclavicle 1.49026e-014 1.05356e-014
rhumerus -15.8444 -26.0652 -32.0269
rradius 77.3763
rwrist 15.953
rhand -31.6372 0.10359
rfingers 7.12502
rthumb -4.89839 -29.8198
lclavicle 1.49026e-014 1.05356e-014
lhumerus -15.0498 29.2604 47.9987
lradius 82.397
lwrist 5.39893
lhand -22.4361 28.5136
lfingers 7.12502
lthumb 3.98763 58.456
rfemur 3.09148 9.40972 10.6286
rtibia 28.2902
rfoot -20.9274 -35.8025
rtoes 0.312118
lfemur -1.99294 -3.73861 -11.119
ltibia 25.0809
lfoot -15.2052 16.6479
ltoes -8.60881
1419
root -5.20694 18.4594 4.0251 -4.98603 50.5644 0.664572
lowerback 3.28303 0.457147 -1.42856
upperback 0.327021 0.560288 0.0376288
thorax -1.51875 0.289732 0.813991
lowerneck -0.299421 1.82131 -4.94318
upperneck 12.0993 1.82631 9.27764
head 3.48336 1.15443 3.70815
rclavicle -6.3681e-014 -2.16178e-015
rhumerus -17.0416 -25.5595 -32.3188
rradius 78.3172
rwrist 15.4212
rhand -31.9526 0.552953
rfingers 7.12502
rthumb -5.20292 -29.3632
lclavicle -6.3681e-014 -2.16178e-015
lhumerus -15.6194 29.3452 48.3206
lradius 82.3613
lwrist 5.9056
lhand -22.1413 28.2538
lfingers 7.12502
lthumb 4.27236 58.1907
rfemur 2.67414 8.92804 10.1188
rtibia 28.7282
rfoot -19.6924 -35.6087
rtoes 0.617699
lfemur -2.04646 -3.5916 -11.4764
ltibia 25.1075
lfoot -15.2685 16.6951
ltoes -9.12119
1420
root -5.12872 18.4786 3.95439 -5.1172 50.5853 0.386438
lowerback 3.26999 0.522433 -1.15498
upperback 0.287606 0.657574 0.0758302
thorax -1.55164 0.336976 0.695215
lowerneck -0.182569 1.81681 -4.64207
upperneck 11.759 1.8568 8.90561
head 3.3697 1.15706 3.53619
rclavicle 2.68546e-014 5.11871e-015
rhumerus -18.2938 -24.9662 -32.6845
rradius 79.3274
rwrist 14.8329
rhand -32.2529 0.875156
rfingers 7.12502
rthumb -5.49292 -29.0337
lclavicle 2.68546e-014 5.11871e-015
lhumerus -16.2472 29.2096 48.7896
lradius 82.416
lwrist 6.31983
lhand -22.1892 28.3303
lfingers 7.12502
lthumb 4.22611 58.2681
rfemur 2.27627 8.95883 9.92698
rtibia 29.1754
rfoot -19.2463 -35.6052
rtoes 2.07899
lfemur -2.07912 -3.56713 -11.6788
ltibia 25.0581
lfoot -15.2084 16.9215
ltoes -9.66318
1421
root -5.05116 18.4983 3.88048 -5.1313 50.5211 0.251099
lowerback 3.32279 0.642452 -0.904447
upperback 0.214318 0.825453 0.0681112
thorax -1.65621 0.419728 0.537993
lowerneck -0.294216 1.7835 -4.79524
upperneck 11.7227 1.81074 9.02052
head 3.37708 1.13427 3.59682
rclavicle 1.26946e-013 5.26779e-015
rhumerus -19.6395 -24.3163 -33.1292
rradius 80.3054
rwrist 14.356
rhand -32.5391 0.942849
rfingers 7.12502
rthumb -5.76919 -28.9586
lclavicle 1.26946e-013 5.26779e-015
lhumerus -16.9291 28.7647 49.2731
lradius 82.4681
lwrist 6.60703
lhand -22.0018 28.3153
lfingers 7.12502
lthumb 4.40703 58.2495
rfemur 1.7943 9.25392 9.62416
rtibia 29.652
rfoot -19.2326 -35.5557
rtoes 3.60228
lfemur -2.04124 -3.67318 -11.9913
ltibia 24.922
lfoot -15.295 17.1767
ltoes -9.08944
1422
root -4.97558 18.5155 3.80493 -5.16393 50.4388 0.226137
lowerback 3.51741 0.791116 -0.711069
upperback 0.159843 1.02852 0.0371954
thorax -1.82046 0.520186 0.384914
lowerneck -0.348706 1.73627 -4.91691
upperneck 11.6158 1.74997 9.10307
head 3.35592 1.10179 3.63995
rclavicle 4.05334e-015 -1.98785e-015
rhumerus -20.8707 -23.7016 -33.6533
rradius 81.0801
rwrist 14.0774
rhand -32.5479 1.42415
rfingers 7.12502
rthumb -5.77777 -28.4771
lclavicle 4.05334e-015 -1.98785e-015
lhumerus -17.6718 28.1591 49.7316
lradius 82.5495
lwrist 7.09003
lhand -21.4316 28.157
lfingers 7.12502
lthumb 4.95761 58.079
rfemur 1.3269 9.32327 9.24569
rtibia 30.2062
rfoot -18.1 -35.7728
rtoes 3.1558
lfemur -1.81256 -3.75178 -12.3494
ltibia 24.6688
lfoot -15.533 17.2235
ltoes -8.44284
1423
root -4.90121 18.5293 3.73138 -5.0403 50.4667 0.529686
lowerback 3.78303 0.929931 -0.72347
upperback 0.195842 1.20905 -0.081139
thorax -1.93229 0.610292 0.257083
lowerneck -0.617502 1.63985 -4.83425
upperneck 11.5647 1.63187 9.02456
head 3.39627 1.04741 3.60134
rclavicle -3.40854e-014 -9.34288e-015
rhumerus -22.0752 -23.1654 -34.3054
rradius 81.7495
rwrist 13.8894
rhand -32.5706 1.68484
rfingers 7.12502
rthumb -5.79965 -28.2158
lclavicle -3.40854e-014 -9.34288e-015
lhumerus -18.2715 27.4898 50.3578
lradius 82.6506
lwrist 7.6536
lhand -21.2354 28.1146
lfingers 7.12502
lthumb 5.14703 58.0321
rfemur 0.941745 9.15101 8.6781
rtibia 30.8877
rfoot -16.2754 -36.1417
rtoes 1.97242
lfemur -1.4447 -3.82048 -12.94
ltibia 24.3124
lfoot -15.6266 17.2596
ltoes -8.1898
